# xmcd CD database file
#
# Track frame offsets:
#	150
#	12096
#	20673
#	33061
#	48277
#	67702
#	78488
#	87546
#	102475
#	117341
#	134666
#	144594
#	162097
#	173070
#
# Disc length: 2507 seconds
#
# Revision: 0
# Processed by: cddbd v1.5.1PL0 Copyright (c) Steve Scherf et al.
# Submitted via: CDex 1.60beta1
#
DISCID=b109c90e
DTITLE=Dick Elliot Trio - Night And Day
DYEAR=2000
DGENRE=Jazz
TTITLE0=Night And Day
TTITLE1=I'm Forever Blowing Bubbles
TTITLE2=When I Fall In Love
TTITLE3=Satin Doll
TTITLE4=Girl From Ipanema
TTITLE5=Do Didley Do
TTITLE6=Always
TTITLE7=Samba De Orfeu (From Black Orphius)
TTITLE8=Scarlet Ribbons
TTITLE9=Misty
TTITLE10=You'd Be So Nice To Come Home To
TTITLE11=But Beautiful
TTITLE12=Secret Love
TTITLE13=Sky Lark
EXTD=YEAR: 2000
EXTT0=
EXTT1=
EXTT2=
EXTT3=
EXTT4=
EXTT5=
EXTT6=
EXTT7=
EXTT8=
EXTT9=
EXTT10=
EXTT11=
EXTT12=
EXTT13=
PLAYORDER=
